Coordinates
version=1
nRows=10
nColumns=34
inDegrees=yes

Units are S.I. units (second, meters, Newtons, ...)
If the header above contains a line with 'inDegrees', this indicates whether rotational values are in degrees (yes) or radians (no).

endheader
time	pelvis_tilt	pelvis_list	pelvis_rotation	pelvis_tx	pelvis_ty	pelvis_tz	hip_flexion_r	hip_adduction_r	hip_rotation_r	knee_angle_r	ankle_angle_r	subtalar_angle_r	mtp_angle_r	hip_flexion_l	hip_adduction_l	hip_rotation_l	knee_angle_l	ankle_angle_l	subtalar_angle_l	mtp_angle_l	lumbar_extension	lumbar_bending	lumbar_rotation	arm_flex_r	arm_add_r	arm_rot_r	elbow_flex_r	pro_sup_r	arm_flex_l	arm_add_l	arm_rot_l	elbow_flex_l	pro_sup_l
      0.00000000	     -1.49527491	     -1.45233233	     -0.54786374	      1.63958154	      0.85192344	     -0.04803267	      0.73431962	     -4.32307496	     -7.30430153	      6.59060898	      3.66376537	    -10.74974381	      0.00000000	      0.65625438	     -6.89333817	     -6.04790811	      6.37848407	      8.21614834	     -5.14122898	      0.00000000	     -7.30369517	      2.21663765	     -1.67575869	     10.59414320	     -8.00291446	     39.51247147	     74.08835078	     89.51614484	      8.47428362	     -4.06137213	     30.04762104	     58.36316193	     81.05706183
      0.01666670	     -2.56965204	     -1.61384255	     -0.36677063	      1.64092578	      0.85064740	     -0.04885968	      1.80259016	     -3.73485970	     -6.86734907	      6.48539947	      6.47365046	     -9.48794397	      0.00000000	      2.35552113	     -6.67524018	     -6.21439597	      6.40295711	      9.07817429	     -3.88781759	      0.00000000	     -5.56005448	      2.76401943	     -2.22952690	     10.08850418	     -7.62606527	     38.24528413	     73.31439882	     89.16227211	      7.66942172	     -3.94728353	     28.05350645	     57.72569477	     80.24446895
      0.03333330	     -2.62807986	     -1.04195167	     -0.43445394	      1.64070950	      0.85086369	     -0.04832620	      1.56534942	     -4.32882610	     -7.32994043	      5.66909542	      6.39824194	     -9.25612977	      0.00000000	      2.18174091	     -6.11386478	     -6.61929081	      5.89811399	      8.79443729	     -3.42699033	      0.00000000	     -5.55545539	      2.05276558	     -2.02734614	     10.28907677	     -7.30105348	     37.99566266	     72.81977420	     89.17060881	      7.96573647	     -4.41436492	     27.49172288	     57.38944127	     79.98577915
      0.05000000	     -2.09308088	     -0.74590678	     -0.34776319	      1.64033770	      0.85252043	     -0.04790114	      0.69888897	     -4.68810666	     -7.37495162	      5.06548277	      6.71085342	     -8.81377639	      0.00000000	      1.12426149	     -5.80461205	     -6.81412139	      5.10387140	      8.47019039	     -3.30126134	      0.00000000	     -6.19266718	      1.57255649	     -1.82583781	     10.32960639	     -7.19906604	     37.97922482	     72.31232048	     89.27658847	      8.36465462	     -4.68515592	     27.25528510	     57.03167907	     79.82943152
      0.06666670	     -1.73094589	     -0.58656815	     -0.28218919	      1.64013783	      0.85304965	     -0.04773037	      0.06408771	     -4.80573673	     -7.39836394	      4.57982329	      6.78777835	     -8.69445433	      0.00000000	      0.37693896	     -5.59424360	     -6.67782023	      4.43473272	      8.18772798	     -3.35860425	      0.00000000	     -6.63376904	      1.44159317	     -1.72418002	     10.42089588	     -7.33991312	     38.57765992	     72.88392444	     89.41570707	      8.65716589	     -4.79107827	     27.70718830	     57.01251291	     79.95038793
      0.08333330	     -1.30172456	     -0.50329274	     -0.18319064	      1.63994597	      0.85353189	     -0.04750558	     -0.54993387	     -4.80756148	     -7.24059246	      4.27098222	      6.86193078	     -8.79253725	      0.00000000	     -0.24279516	     -5.48612834	     -6.39002356	      4.09887966	      7.99071156	     -3.63667031	      0.00000000	     -7.17304111	      1.36278688	     -1.62065424	     10.55120513	     -7.59638060	     39.44179559	     73.78826214	     89.52341286	      9.05013177	     -4.89023019	     28.57502972	     57.06120914	     80.29554356
      0.10000000	     -1.25972161	     -0.46947766	     -0.07577227	      1.63992652	      0.85375765	     -0.04719200	     -0.62574796	     -4.80276640	     -7.17177127	      4.22346554	      6.87856715	     -8.78695274	      0.00000000	     -0.26579189	     -5.47373170	     -6.36744843	      4.08995475	      7.94377011	     -3.62929453	      0.00000000	     -7.10397118	      1.37172845	     -1.60756478	     10.52342699	     -7.48241320	     39.53723619	     73.87385588	     89.52865484	      9.12575058	     -4.82410446	     28.62505815	     57.09380222	     80.31739267
      0.11666670	     -0.72929184	     -0.44244295	      0.01978771	      1.63983878	      0.85506609	     -0.04687155	     -1.42755568	     -4.74391380	     -6.98338039	      3.78085534	      6.55180732	     -9.20937290	      0.00000000	     -0.94533303	     -5.43443648	     -5.95262139	      3.84625455	      7.42553474	     -4.04721953	      0.00000000	     -7.80399316	      1.37265528	     -1.55739130	     10.77266418	     -8.02264129	     40.87453262	     75.16709241	     89.54602492	      9.76246999	     -5.06516059	     29.99245055	     56.85911774	     80.95276870
      0.13333330	     -0.72045559	     -0.42553508	      0.02987933	      1.63986884	      0.85557808	     -0.04660429	     -1.41954209	     -4.72960749	     -6.97991870	      3.77447023	      6.55179021	     -9.20896306	      0.00000000	     -0.95086873	     -5.43292941	     -5.95267502	      3.84915561	      7.42065165	     -4.04645677	      0.00000000	     -7.80191818	      1.37316261	     -1.55961251	     10.76690107	     -8.02280041	     40.87822605	     75.16813787	     89.54591362	      9.76370526	     -5.06314780	     29.99529557	     56.85924381	     80.95431047
      0.15000000	     -0.61224545	     -0.42520662	      0.25524007	      1.64012811	      0.85560902	     -0.04660404	     -1.82526942	     -4.63929534	     -6.93593640	      3.31707814	      6.45429702	     -9.40175865	      0.00000000	     -1.08345962	     -5.46293502	     -5.82729325	      3.73578409	      6.86627632	     -3.93497620	      0.00000000	     -7.86286272	      1.31442212	     -1.64822813	     10.55304195	     -8.11348516	     41.23536822	     75.38515083	     89.53016902	      9.88529800	     -5.18077405	     30.30699540	     56.72362654	     81.12178892
